<svg id="svgQrWrapper" viewBox="0 0 300 300" xmlns="http://www.w3.org/2000/svg" xmlns:xlink="http://www.w3.org/1999/xlink" width="300" height="300" style="width: 100%; height: 100%; background-color: rgb(255, 255, 255);"><svg fill="#072207" xmlns="http://www.w3.org/2000/svg" width="300" height="300" viewBox="0 0 300 300"><path d="M253.44,2.69H46.64A11.39,11.39,0,0,0,35.3,14V287.33a11.27,11.27,0,0,0,11.26,11.26H253.44a11.27,11.27,0,0,0,11.26-11.26V14A11.27,11.27,0,0,0,253.44,2.69ZM86.55,261.76v16.93H79.92v-9.61H66.67v9.61H60V261.75H56.56l16.75-14.58L90,261.76Zm173.62-40.52a6.31,6.31,0,0,1-6.32,6.32H46.23a6.3,6.3,0,0,1-6.31-6.32V13.54a6.3,6.3,0,0,1,6.31-6.32H253.85a6.31,6.31,0,0,1,6.32,6.32Z"/><g transform="translate(48, 15)scale(0.68)" fill="none"><svg width="300" height="300"><style>.dot-color{ fill: #22071b; }.corners-square-color-0-0{ fill: #22071b; }.corners-dot-color-0-0{ fill: #22071b; }.corners-square-color-1-0{ fill: #22071b; }.corners-dot-color-1-0{ fill: #22071b; }.corners-square-color-0-1{ fill: #22071b; }.corners-dot-color-0-1{ fill: #22071b; }</style><defs/><rect x="0" y="0" height="300" width="300" clip-path="url('#clip-path-background-color')"/><g class="dot-color"><rect x="0" y="108" width="12" height="12" transform="rotate(0,6,114)"/><rect x="0" y="156" width="12" height="12" transform="rotate(0,6,162)"/><rect x="0" y="192" width="12" height="12" transform="rotate(0,6,198)"/><rect x="12" y="96" width="12" height="12" transform="rotate(0,18,102)"/><rect x="12" y="108" width="12" height="12" transform="rotate(0,18,114)"/><rect x="12" y="132" width="12" height="12" transform="rotate(0,18,138)"/><rect x="12" y="144" width="12" height="12" transform="rotate(0,18,150)"/><rect x="12" y="156" width="12" height="12" transform="rotate(0,18,162)"/><rect x="12" y="168" width="12" height="12" transform="rotate(0,18,174)"/><rect x="12" y="180" width="12" height="12" transform="rotate(0,18,186)"/><rect x="12" y="192" width="12" height="12" transform="rotate(0,18,198)"/><rect x="24" y="108" width="12" height="12" transform="rotate(0,30,114)"/><rect x="24" y="120" width="12" height="12" transform="rotate(0,30,126)"/><rect x="24" y="132" width="12" height="12" transform="rotate(0,30,138)"/><rect x="24" y="168" width="12" height="12" transform="rotate(0,30,174)"/><rect x="36" y="96" width="12" height="12" transform="rotate(0,42,102)"/><rect x="36" y="108" width="12" height="12" transform="rotate(0,42,114)"/><rect x="36" y="132" width="12" height="12" transform="rotate(0,42,138)"/><rect x="36" y="144" width="12" height="12" transform="rotate(0,42,150)"/><rect x="36" y="156" width="12" height="12" transform="rotate(0,42,162)"/><rect x="36" y="168" width="12" height="12" transform="rotate(0,42,174)"/><rect x="36" y="180" width="12" height="12" transform="rotate(0,42,186)"/><rect x="48" y="120" width="12" height="12" transform="rotate(0,54,126)"/><rect x="48" y="144" width="12" height="12" transform="rotate(0,54,150)"/><rect x="48" y="156" width="12" height="12" transform="rotate(0,54,162)"/><rect x="48" y="192" width="12" height="12" transform="rotate(0,54,198)"/><rect x="60" y="96" width="12" height="12" transform="rotate(0,66,102)"/><rect x="60" y="120" width="12" height="12" transform="rotate(0,66,126)"/><rect x="60" y="168" width="12" height="12" transform="rotate(0,66,174)"/><rect x="60" y="180" width="12" height="12" transform="rotate(0,66,186)"/><rect x="72" y="96" width="12" height="12" transform="rotate(0,78,102)"/><rect x="72" y="120" width="12" height="12" transform="rotate(0,78,126)"/><rect x="72" y="144" width="12" height="12" transform="rotate(0,78,150)"/><rect x="72" y="168" width="12" height="12" transform="rotate(0,78,174)"/><rect x="72" y="192" width="12" height="12" transform="rotate(0,78,198)"/><rect x="84" y="132" width="12" height="12" transform="rotate(0,90,138)"/><rect x="84" y="168" width="12" height="12" transform="rotate(0,90,174)"/><rect x="84" y="192" width="12" height="12" transform="rotate(0,90,198)"/><rect x="96" y="0" width="12" height="12" transform="rotate(0,102,6)"/><rect x="96" y="12" width="12" height="12" transform="rotate(0,102,18)"/><rect x="96" y="24" width="12" height="12" transform="rotate(0,102,30)"/><rect x="96" y="36" width="12" height="12" transform="rotate(0,102,42)"/><rect x="96" y="48" width="12" height="12" transform="rotate(0,102,54)"/><rect x="96" y="72" width="12" height="12" transform="rotate(0,102,78)"/><rect x="96" y="84" width="12" height="12" transform="rotate(0,102,90)"/><rect x="96" y="96" width="12" height="12" transform="rotate(0,102,102)"/><rect x="96" y="108" width="12" height="12" transform="rotate(0,102,114)"/><rect x="96" y="120" width="12" height="12" transform="rotate(0,102,126)"/><rect x="96" y="156" width="12" height="12" transform="rotate(0,102,162)"/><rect x="96" y="204" width="12" height="12" transform="rotate(0,102,210)"/><rect x="96" y="228" width="12" height="12" transform="rotate(0,102,234)"/><rect x="96" y="252" width="12" height="12" transform="rotate(0,102,258)"/><rect x="96" y="276" width="12" height="12" transform="rotate(0,102,282)"/><rect x="108" y="0" width="12" height="12" transform="rotate(0,114,6)"/><rect x="108" y="24" width="12" height="12" transform="rotate(0,114,30)"/><rect x="108" y="48" width="12" height="12" transform="rotate(0,114,54)"/><rect x="108" y="60" width="12" height="12" transform="rotate(0,114,66)"/><rect x="108" y="108" width="12" height="12" transform="rotate(0,114,114)"/><rect x="108" y="132" width="12" height="12" transform="rotate(0,114,138)"/><rect x="108" y="156" width="12" height="12" transform="rotate(0,114,162)"/><rect x="108" y="276" width="12" height="12" transform="rotate(0,114,282)"/><rect x="120" y="0" width="12" height="12" transform="rotate(0,126,6)"/><rect x="120" y="12" width="12" height="12" transform="rotate(0,126,18)"/><rect x="120" y="24" width="12" height="12" transform="rotate(0,126,30)"/><rect x="120" y="36" width="12" height="12" transform="rotate(0,126,42)"/><rect x="120" y="60" width="12" height="12" transform="rotate(0,126,66)"/><rect x="120" y="72" width="12" height="12" transform="rotate(0,126,78)"/><rect x="120" y="108" width="12" height="12" transform="rotate(0,126,114)"/><rect x="120" y="156" width="12" height="12" transform="rotate(0,126,162)"/><rect x="120" y="168" width="12" height="12" transform="rotate(0,126,174)"/><rect x="120" y="180" width="12" height="12" transform="rotate(0,126,186)"/><rect x="120" y="204" width="12" height="12" transform="rotate(0,126,210)"/><rect x="120" y="228" width="12" height="12" transform="rotate(0,126,234)"/><rect x="120" y="252" width="12" height="12" transform="rotate(0,126,258)"/><rect x="120" y="276" width="12" height="12" transform="rotate(0,126,282)"/><rect x="120" y="288" width="12" height="12" transform="rotate(0,126,294)"/><rect x="132" y="0" width="12" height="12" transform="rotate(0,138,6)"/><rect x="132" y="36" width="12" height="12" transform="rotate(0,138,42)"/><rect x="132" y="48" width="12" height="12" transform="rotate(0,138,54)"/><rect x="132" y="60" width="12" height="12" transform="rotate(0,138,66)"/><rect x="132" y="84" width="12" height="12" transform="rotate(0,138,90)"/><rect x="132" y="108" width="12" height="12" transform="rotate(0,138,114)"/><rect x="132" y="120" width="12" height="12" transform="rotate(0,138,126)"/><rect x="132" y="144" width="12" height="12" transform="rotate(0,138,150)"/><rect x="132" y="168" width="12" height="12" transform="rotate(0,138,174)"/><rect x="132" y="288" width="12" height="12" transform="rotate(0,138,294)"/><rect x="144" y="12" width="12" height="12" transform="rotate(0,150,18)"/><rect x="144" y="24" width="12" height="12" transform="rotate(0,150,30)"/><rect x="144" y="48" width="12" height="12" transform="rotate(0,150,54)"/><rect x="144" y="72" width="12" height="12" transform="rotate(0,150,78)"/><rect x="144" y="108" width="12" height="12" transform="rotate(0,150,114)"/><rect x="144" y="144" width="12" height="12" transform="rotate(0,150,150)"/><rect x="144" y="156" width="12" height="12" transform="rotate(0,150,162)"/><rect x="144" y="180" width="12" height="12" transform="rotate(0,150,186)"/><rect x="144" y="192" width="12" height="12" transform="rotate(0,150,198)"/><rect x="144" y="204" width="12" height="12" transform="rotate(0,150,210)"/><rect x="144" y="216" width="12" height="12" transform="rotate(0,150,222)"/><rect x="144" y="228" width="12" height="12" transform="rotate(0,150,234)"/><rect x="144" y="240" width="12" height="12" transform="rotate(0,150,246)"/><rect x="144" y="264" width="12" height="12" transform="rotate(0,150,270)"/><rect x="144" y="276" width="12" height="12" transform="rotate(0,150,282)"/><rect x="144" y="288" width="12" height="12" transform="rotate(0,150,294)"/><rect x="156" y="0" width="12" height="12" transform="rotate(0,162,6)"/><rect x="156" y="24" width="12" height="12" transform="rotate(0,162,30)"/><rect x="156" y="36" width="12" height="12" transform="rotate(0,162,42)"/><rect x="156" y="60" width="12" height="12" transform="rotate(0,162,66)"/><rect x="156" y="84" width="12" height="12" transform="rotate(0,162,90)"/><rect x="156" y="108" width="12" height="12" transform="rotate(0,162,114)"/><rect x="156" y="120" width="12" height="12" transform="rotate(0,162,126)"/><rect x="156" y="132" width="12" height="12" transform="rotate(0,162,138)"/><rect x="156" y="168" width="12" height="12" transform="rotate(0,162,174)"/><rect x="156" y="192" width="12" height="12" transform="rotate(0,162,198)"/><rect x="156" y="228" width="12" height="12" transform="rotate(0,162,234)"/><rect x="156" y="252" width="12" height="12" transform="rotate(0,162,258)"/><rect x="156" y="276" width="12" height="12" transform="rotate(0,162,282)"/><rect x="168" y="0" width="12" height="12" transform="rotate(0,174,6)"/><rect x="168" y="60" width="12" height="12" transform="rotate(0,174,66)"/><rect x="168" y="72" width="12" height="12" transform="rotate(0,174,78)"/><rect x="168" y="84" width="12" height="12" transform="rotate(0,174,90)"/><rect x="168" y="96" width="12" height="12" transform="rotate(0,174,102)"/><rect x="168" y="108" width="12" height="12" transform="rotate(0,174,114)"/><rect x="168" y="144" width="12" height="12" transform="rotate(0,174,150)"/><rect x="168" y="168" width="12" height="12" transform="rotate(0,174,174)"/><rect x="168" y="180" width="12" height="12" transform="rotate(0,174,186)"/><rect x="168" y="192" width="12" height="12" transform="rotate(0,174,198)"/><rect x="168" y="204" width="12" height="12" transform="rotate(0,174,210)"/><rect x="168" y="228" width="12" height="12" transform="rotate(0,174,234)"/><rect x="168" y="240" width="12" height="12" transform="rotate(0,174,246)"/><rect x="168" y="252" width="12" height="12" transform="rotate(0,174,258)"/><rect x="168" y="276" width="12" height="12" transform="rotate(0,174,282)"/><rect x="168" y="288" width="12" height="12" transform="rotate(0,174,294)"/><rect x="180" y="0" width="12" height="12" transform="rotate(0,186,6)"/><rect x="180" y="24" width="12" height="12" transform="rotate(0,186,30)"/><rect x="180" y="36" width="12" height="12" transform="rotate(0,186,42)"/><rect x="180" y="60" width="12" height="12" transform="rotate(0,186,66)"/><rect x="180" y="96" width="12" height="12" transform="rotate(0,186,102)"/><rect x="180" y="180" width="12" height="12" transform="rotate(0,186,186)"/><rect x="180" y="204" width="12" height="12" transform="rotate(0,186,210)"/><rect x="180" y="216" width="12" height="12" transform="rotate(0,186,222)"/><rect x="180" y="228" width="12" height="12" transform="rotate(0,186,234)"/><rect x="180" y="240" width="12" height="12" transform="rotate(0,186,246)"/><rect x="180" y="288" width="12" height="12" transform="rotate(0,186,294)"/><rect x="192" y="0" width="12" height="12" transform="rotate(0,198,6)"/><rect x="192" y="36" width="12" height="12" transform="rotate(0,198,42)"/><rect x="192" y="60" width="12" height="12" transform="rotate(0,198,66)"/><rect x="192" y="72" width="12" height="12" transform="rotate(0,198,78)"/><rect x="192" y="84" width="12" height="12" transform="rotate(0,198,90)"/><rect x="192" y="108" width="12" height="12" transform="rotate(0,198,114)"/><rect x="192" y="120" width="12" height="12" transform="rotate(0,198,126)"/><rect x="192" y="132" width="12" height="12" transform="rotate(0,198,138)"/><rect x="192" y="144" width="12" height="12" transform="rotate(0,198,150)"/><rect x="192" y="156" width="12" height="12" transform="rotate(0,198,162)"/><rect x="192" y="168" width="12" height="12" transform="rotate(0,198,174)"/><rect x="192" y="180" width="12" height="12" transform="rotate(0,198,186)"/><rect x="192" y="192" width="12" height="12" transform="rotate(0,198,198)"/><rect x="192" y="204" width="12" height="12" transform="rotate(0,198,210)"/><rect x="192" y="216" width="12" height="12" transform="rotate(0,198,222)"/><rect x="192" y="228" width="12" height="12" transform="rotate(0,198,234)"/><rect x="192" y="240" width="12" height="12" transform="rotate(0,198,246)"/><rect x="192" y="264" width="12" height="12" transform="rotate(0,198,270)"/><rect x="204" y="96" width="12" height="12" transform="rotate(0,210,102)"/><rect x="204" y="108" width="12" height="12" transform="rotate(0,210,114)"/><rect x="204" y="132" width="12" height="12" transform="rotate(0,210,138)"/><rect x="204" y="168" width="12" height="12" transform="rotate(0,210,174)"/><rect x="204" y="192" width="12" height="12" transform="rotate(0,210,198)"/><rect x="204" y="240" width="12" height="12" transform="rotate(0,210,246)"/><rect x="204" y="252" width="12" height="12" transform="rotate(0,210,258)"/><rect x="216" y="96" width="12" height="12" transform="rotate(0,222,102)"/><rect x="216" y="108" width="12" height="12" transform="rotate(0,222,114)"/><rect x="216" y="120" width="12" height="12" transform="rotate(0,222,126)"/><rect x="216" y="144" width="12" height="12" transform="rotate(0,222,150)"/><rect x="216" y="156" width="12" height="12" transform="rotate(0,222,162)"/><rect x="216" y="168" width="12" height="12" transform="rotate(0,222,174)"/><rect x="216" y="192" width="12" height="12" transform="rotate(0,222,198)"/><rect x="216" y="216" width="12" height="12" transform="rotate(0,222,222)"/><rect x="216" y="240" width="12" height="12" transform="rotate(0,222,246)"/><rect x="216" y="264" width="12" height="12" transform="rotate(0,222,270)"/><rect x="216" y="276" width="12" height="12" transform="rotate(0,222,282)"/><rect x="216" y="288" width="12" height="12" transform="rotate(0,222,294)"/><rect x="228" y="120" width="12" height="12" transform="rotate(0,234,126)"/><rect x="228" y="132" width="12" height="12" transform="rotate(0,234,138)"/><rect x="228" y="192" width="12" height="12" transform="rotate(0,234,198)"/><rect x="228" y="240" width="12" height="12" transform="rotate(0,234,246)"/><rect x="228" y="252" width="12" height="12" transform="rotate(0,234,258)"/><rect x="228" y="288" width="12" height="12" transform="rotate(0,234,294)"/><rect x="240" y="96" width="12" height="12" transform="rotate(0,246,102)"/><rect x="240" y="156" width="12" height="12" transform="rotate(0,246,162)"/><rect x="240" y="180" width="12" height="12" transform="rotate(0,246,186)"/><rect x="240" y="192" width="12" height="12" transform="rotate(0,246,198)"/><rect x="240" y="204" width="12" height="12" transform="rotate(0,246,210)"/><rect x="240" y="216" width="12" height="12" transform="rotate(0,246,222)"/><rect x="240" y="228" width="12" height="12" transform="rotate(0,246,234)"/><rect x="240" y="240" width="12" height="12" transform="rotate(0,246,246)"/><rect x="240" y="264" width="12" height="12" transform="rotate(0,246,270)"/><rect x="240" y="276" width="12" height="12" transform="rotate(0,246,282)"/><rect x="252" y="96" width="12" height="12" transform="rotate(0,258,102)"/><rect x="252" y="132" width="12" height="12" transform="rotate(0,258,138)"/><rect x="252" y="144" width="12" height="12" transform="rotate(0,258,150)"/><rect x="252" y="168" width="12" height="12" transform="rotate(0,258,174)"/><rect x="252" y="204" width="12" height="12" transform="rotate(0,258,210)"/><rect x="252" y="216" width="12" height="12" transform="rotate(0,258,222)"/><rect x="252" y="240" width="12" height="12" transform="rotate(0,258,246)"/><rect x="252" y="252" width="12" height="12" transform="rotate(0,258,258)"/><rect x="252" y="264" width="12" height="12" transform="rotate(0,258,270)"/><rect x="252" y="276" width="12" height="12" transform="rotate(0,258,282)"/><rect x="252" y="288" width="12" height="12" transform="rotate(0,258,294)"/><rect x="264" y="96" width="12" height="12" transform="rotate(0,270,102)"/><rect x="264" y="120" width="12" height="12" transform="rotate(0,270,126)"/><rect x="264" y="168" width="12" height="12" transform="rotate(0,270,174)"/><rect x="264" y="192" width="12" height="12" transform="rotate(0,270,198)"/><rect x="264" y="252" width="12" height="12" transform="rotate(0,270,258)"/><rect x="264" y="264" width="12" height="12" transform="rotate(0,270,270)"/><rect x="264" y="288" width="12" height="12" transform="rotate(0,270,294)"/><rect x="276" y="96" width="12" height="12" transform="rotate(0,282,102)"/><rect x="276" y="144" width="12" height="12" transform="rotate(0,282,150)"/><rect x="276" y="180" width="12" height="12" transform="rotate(0,282,186)"/><rect x="276" y="192" width="12" height="12" transform="rotate(0,282,198)"/><rect x="276" y="204" width="12" height="12" transform="rotate(0,282,210)"/><rect x="276" y="216" width="12" height="12" transform="rotate(0,282,222)"/><rect x="276" y="228" width="12" height="12" transform="rotate(0,282,234)"/><rect x="276" y="240" width="12" height="12" transform="rotate(0,282,246)"/><rect x="276" y="252" width="12" height="12" transform="rotate(0,282,258)"/><rect x="276" y="288" width="12" height="12" transform="rotate(0,282,294)"/><rect x="288" y="96" width="12" height="12" transform="rotate(0,294,102)"/><rect x="288" y="108" width="12" height="12" transform="rotate(0,294,114)"/><rect x="288" y="120" width="12" height="12" transform="rotate(0,294,126)"/><rect x="288" y="132" width="12" height="12" transform="rotate(0,294,138)"/><rect x="288" y="156" width="12" height="12" transform="rotate(0,294,162)"/><rect x="288" y="180" width="12" height="12" transform="rotate(0,294,186)"/><rect x="288" y="204" width="12" height="12" transform="rotate(0,294,210)"/><rect x="288" y="216" width="12" height="12" transform="rotate(0,294,222)"/><rect x="288" y="228" width="12" height="12" transform="rotate(0,294,234)"/><rect x="288" y="240" width="12" height="12" transform="rotate(0,294,246)"/><rect x="288" y="252" width="12" height="12" transform="rotate(0,294,258)"/><rect x="288" y="264" width="12" height="12" transform="rotate(0,294,270)"/><rect x="288" y="276" width="12" height="12" transform="rotate(0,294,282)"/><rect x="288" y="288" width="12" height="12" transform="rotate(0,294,294)"/></g><g class="green-dots"/><g class="corners-square-color-0-0"><path clip-rule="evenodd" d="M 0 30v 24a 30 30, 0, 0, 0, 30 30h 54v -54a 30 30, 0, 0, 0, -30 -30h -24H 0zM 30 12h 24a 18 18, 0, 0, 1, 18 18v 42h -42a 18 18, 0, 0, 1, -18 -18v -42z" transform="rotate(0,42,42)"/></g><g class="corners-dot-color-0-0"><path d="M 34.285714285714285 29.142857142857142h 15.428571428571429c 5.142857142857143 0 5.142857142857143 5.142857142857143 5.142857142857143 5.142857142857143v 15.428571428571429c 0 5.142857142857143 -5.142857142857143 5.142857142857143 -5.142857142857143 5.142857142857143h -15.428571428571429c -5.142857142857143 0 -5.142857142857143 -5.142857142857143 -5.142857142857143 -5.142857142857143v -15.428571428571429c 0 -5.142857142857143 5.142857142857143 -5.142857142857143 5.142857142857143 -5.142857142857143z" transform="rotate(45,42,42)"/></g><g class="corners-square-color-1-0"><path clip-rule="evenodd" d="M 216 30v 24a 30 30, 0, 0, 0, 30 30h 54v -54a 30 30, 0, 0, 0, -30 -30h -24H 216zM 246 12h 24a 18 18, 0, 0, 1, 18 18v 42h -42a 18 18, 0, 0, 1, -18 -18v -42z" transform="rotate(90,258,42)"/></g><g class="corners-dot-color-1-0"><path d="M 250.28571428571428 29.142857142857142h 15.428571428571429c 5.142857142857143 0 5.142857142857143 5.142857142857143 5.142857142857143 5.142857142857143v 15.428571428571429c 0 5.142857142857143 -5.142857142857143 5.142857142857143 -5.142857142857143 5.142857142857143h -15.428571428571429c -5.142857142857143 0 -5.142857142857143 -5.142857142857143 -5.142857142857143 -5.142857142857143v -15.428571428571429c 0 -5.142857142857143 5.142857142857143 -5.142857142857143 5.142857142857143 -5.142857142857143z" transform="rotate(135,258,42)"/></g><g class="corners-square-color-0-1"><path clip-rule="evenodd" d="M 0 246v 24a 30 30, 0, 0, 0, 30 30h 54v -54a 30 30, 0, 0, 0, -30 -30h -24H 0zM 30 228h 24a 18 18, 0, 0, 1, 18 18v 42h -42a 18 18, 0, 0, 1, -18 -18v -42z" transform="rotate(-90,42,258)"/></g><g class="corners-dot-color-0-1"><path d="M 34.285714285714285 245.14285714285714h 15.428571428571429c 5.142857142857143 0 5.142857142857143 5.142857142857143 5.142857142857143 5.142857142857143v 15.428571428571429c 0 5.142857142857143 -5.142857142857143 5.142857142857143 -5.142857142857143 5.142857142857143h -15.428571428571429c -5.142857142857143 0 -5.142857142857143 -5.142857142857143 -5.142857142857143 -5.142857142857143v -15.428571428571429c 0 -5.142857142857143 5.142857142857143 -5.142857142857143 5.142857142857143 -5.142857142857143z" transform="rotate(-45,42,258)"/></g></svg></g></svg><g transform="translate(175,280)"><style>
          .small275{
            fill:#ffffff;
            font-size:31px;
            font-family: Tahoma, sans-serif;
          }
        </style><text x="0" y="-7" text-anchor="middle" class="small275">Voluntari@</text></g></svg>